# xmcd
#
# Track frame offsets:
#	150
#	16592
#	36542
#
# Disc length: 700 seconds
#
# Revision: 2
# Processed by: cddbd v1.4PL0 Copyright (c) Steve Scherf et al.
# Submitted via: EasyCDDAExtractor 6.0.0.1
#
DISCID=1a02ba03
DTITLE=Various Artist - (3 of 3)
DYEAR=1999
DGENRE=Dance
TTITLE0=Badder Badder Schwing feat Fatboy Slim - Freddy Fresh
TTITLE1=La Lyrica (ext version) - freddy fresh
TTITLE2=The Dream - Freddy Fresh
EXTD=
EXTT0=
EXTT1=
EXTT2=
PLAYORDER=
